<svg xmlns="http://www.w3.org/2000/svg" xmlns:xlink="http://www.w3.org/1999/xlink" width="600" zoomAndPan="magnify" viewBox="0 0 450 449.999984" height="600" preserveAspectRatio="xMidYMid meet" version="1.0"><defs><clipPath id="5e22d54165"><path d="M 96.824219 118.199219 L 154 118.199219 L 154 175 L 96.824219 175 Z M 96.824219 118.199219 " clip-rule="nonzero"/></clipPath><clipPath id="0fc6886c6d"><path d="M 296 118.199219 L 353.324219 118.199219 L 353.324219 175 L 296 175 Z M 296 118.199219 " clip-rule="nonzero"/></clipPath><clipPath id="0350b54d8e"><path d="M 300 200 L 350 200 L 350 362.699219 L 300 362.699219 Z M 300 200 " clip-rule="nonzero"/></clipPath><clipPath id="a34852f64b"><path d="M 101 200 L 151 200 L 151 362.699219 L 101 362.699219 Z M 101 200 " clip-rule="nonzero"/></clipPath></defs><rect x="-45" width="540" fill="#ffffff" y="-44.999998" height="539.99998" fill-opacity="1"/><rect x="-45" width="540" fill="#ffffff" y="-44.999998" height="539.99998" fill-opacity="1"/><g clip-path="url(#5e22d54165)"><path fill="#dce4ef" d="M 153.183594 146.324219 C 153.183594 147.246094 153.136719 148.164062 153.046875 149.078125 C 152.957031 149.996094 152.820312 150.90625 152.640625 151.808594 C 152.460938 152.714844 152.238281 153.605469 151.96875 154.488281 C 151.703125 155.367188 151.390625 156.234375 151.039062 157.085938 C 150.683594 157.9375 150.289062 158.769531 149.855469 159.582031 C 149.421875 160.390625 148.945312 161.179688 148.433594 161.949219 C 147.921875 162.714844 147.371094 163.453125 146.785156 164.164062 C 146.199219 164.875 145.582031 165.558594 144.929688 166.207031 C 144.277344 166.859375 143.59375 167.476562 142.878906 168.0625 C 142.167969 168.644531 141.425781 169.195312 140.660156 169.707031 C 139.890625 170.21875 139.101562 170.691406 138.289062 171.125 C 137.472656 171.558594 136.640625 171.953125 135.789062 172.304688 C 134.933594 172.65625 134.066406 172.96875 133.183594 173.234375 C 132.300781 173.503906 131.40625 173.726562 130.5 173.90625 C 129.597656 174.085938 128.683594 174.21875 127.765625 174.308594 C 126.847656 174.402344 125.925781 174.445312 125.003906 174.445312 C 124.082031 174.445312 123.160156 174.402344 122.242188 174.308594 C 121.324219 174.21875 120.410156 174.085938 119.507812 173.90625 C 118.601562 173.726562 117.707031 173.503906 116.824219 173.234375 C 115.941406 172.96875 115.074219 172.65625 114.21875 172.304688 C 113.367188 171.953125 112.535156 171.558594 111.71875 171.125 C 110.90625 170.691406 110.117188 170.21875 109.347656 169.707031 C 108.582031 169.195312 107.839844 168.644531 107.128906 168.0625 C 106.414062 167.476562 105.730469 166.859375 105.078125 166.207031 C 104.425781 165.558594 103.808594 164.875 103.222656 164.164062 C 102.636719 163.453125 102.085938 162.714844 101.574219 161.949219 C 101.0625 161.179688 100.585938 160.390625 100.152344 159.582031 C 99.71875 158.769531 99.324219 157.9375 98.96875 157.085938 C 98.617188 156.234375 98.304688 155.367188 98.039062 154.488281 C 97.769531 153.605469 97.546875 152.714844 97.367188 151.808594 C 97.1875 150.90625 97.050781 149.996094 96.960938 149.078125 C 96.871094 148.164062 96.824219 147.246094 96.824219 146.324219 C 96.824219 145.402344 96.871094 144.484375 96.960938 143.566406 C 97.050781 142.652344 97.1875 141.742188 97.367188 140.835938 C 97.546875 139.933594 97.769531 139.042969 98.039062 138.160156 C 98.304688 137.277344 98.617188 136.414062 98.96875 135.5625 C 99.324219 134.710938 99.71875 133.878906 100.152344 133.066406 C 100.585938 132.253906 101.0625 131.464844 101.574219 130.699219 C 102.085938 129.933594 102.636719 129.195312 103.222656 128.484375 C 103.808594 127.769531 104.425781 127.089844 105.078125 126.4375 C 105.730469 125.785156 106.414062 125.167969 107.128906 124.585938 C 107.839844 124 108.582031 123.453125 109.347656 122.941406 C 110.117188 122.429688 110.90625 121.957031 111.71875 121.523438 C 112.535156 121.089844 113.367188 120.695312 114.21875 120.34375 C 115.074219 119.988281 115.941406 119.679688 116.824219 119.414062 C 117.707031 119.144531 118.601562 118.921875 119.507812 118.742188 C 120.410156 118.5625 121.324219 118.425781 122.242188 118.335938 C 123.160156 118.246094 124.082031 118.203125 125.003906 118.203125 C 125.925781 118.203125 126.847656 118.246094 127.765625 118.335938 C 128.683594 118.425781 129.597656 118.5625 130.5 118.742188 C 131.40625 118.921875 132.300781 119.144531 133.183594 119.414062 C 134.066406 119.679688 134.933594 119.988281 135.789062 120.34375 C 136.640625 120.695312 137.472656 121.089844 138.289062 121.523438 C 139.101562 121.957031 139.890625 122.429688 140.660156 122.941406 C 141.425781 123.453125 142.167969 124 142.878906 124.585938 C 143.59375 125.167969 144.277344 125.785156 144.929688 126.4375 C 145.582031 127.089844 146.199219 127.769531 146.785156 128.484375 C 147.371094 129.195312 147.921875 129.933594 148.433594 130.699219 C 148.945312 131.464844 149.421875 132.253906 149.855469 133.066406 C 150.289062 133.878906 150.683594 134.710938 151.039062 135.5625 C 151.390625 136.414062 151.703125 137.277344 151.96875 138.160156 C 152.238281 139.042969 152.460938 139.933594 152.640625 140.835938 C 152.820312 141.742188 152.957031 142.652344 153.046875 143.566406 C 153.136719 144.484375 153.183594 145.402344 153.183594 146.324219 Z M 153.183594 146.324219 " fill-opacity="1" fill-rule="nonzero"/></g><g clip-path="url(#0fc6886c6d)"><path fill="#dce4ef" d="M 353.324219 146.324219 C 353.324219 147.246094 353.28125 148.164062 353.1875 149.078125 C 353.097656 149.996094 352.964844 150.90625 352.785156 151.808594 C 352.601562 152.714844 352.378906 153.605469 352.113281 154.488281 C 351.84375 155.367188 351.53125 156.234375 351.179688 157.085938 C 350.828125 157.9375 350.433594 158.769531 349.996094 159.582031 C 349.5625 160.390625 349.089844 161.179688 348.574219 161.949219 C 348.0625 162.714844 347.515625 163.453125 346.929688 164.164062 C 346.34375 164.875 345.722656 165.558594 345.070312 166.207031 C 344.417969 166.859375 343.734375 167.476562 343.023438 168.0625 C 342.308594 168.644531 341.570312 169.195312 340.800781 169.707031 C 340.035156 170.21875 339.242188 170.691406 338.429688 171.125 C 337.617188 171.558594 336.78125 171.953125 335.929688 172.304688 C 335.078125 172.65625 334.210938 172.96875 333.324219 173.234375 C 332.441406 173.503906 331.546875 173.726562 330.644531 173.90625 C 329.738281 174.085938 328.828125 174.21875 327.910156 174.308594 C 326.988281 174.402344 326.070312 174.445312 325.144531 174.445312 C 324.222656 174.445312 323.300781 174.402344 322.382812 174.308594 C 321.464844 174.21875 320.554688 174.085938 319.648438 173.90625 C 318.742188 173.726562 317.847656 173.503906 316.964844 173.234375 C 316.082031 172.96875 315.214844 172.65625 314.363281 172.304688 C 313.511719 171.953125 312.675781 171.558594 311.863281 171.125 C 311.050781 170.691406 310.257812 170.21875 309.492188 169.707031 C 308.722656 169.195312 307.984375 168.644531 307.269531 168.0625 C 306.554688 167.476562 305.875 166.859375 305.222656 166.207031 C 304.566406 165.558594 303.949219 164.875 303.363281 164.164062 C 302.777344 163.453125 302.230469 162.714844 301.714844 161.949219 C 301.203125 161.179688 300.730469 160.390625 300.292969 159.582031 C 299.859375 158.769531 299.464844 157.9375 299.113281 157.085938 C 298.757812 156.234375 298.449219 155.367188 298.179688 154.488281 C 297.914062 153.605469 297.6875 152.714844 297.507812 151.808594 C 297.328125 150.90625 297.195312 149.996094 297.101562 149.078125 C 297.011719 148.164062 296.96875 147.246094 296.96875 146.324219 C 296.96875 145.402344 297.011719 144.484375 297.101562 143.566406 C 297.195312 142.652344 297.328125 141.742188 297.507812 140.835938 C 297.6875 139.933594 297.914062 139.042969 298.179688 138.160156 C 298.449219 137.277344 298.757812 136.414062 299.113281 135.5625 C 299.464844 134.710938 299.859375 133.878906 300.292969 133.066406 C 300.730469 132.253906 301.203125 131.464844 301.714844 130.699219 C 302.230469 129.933594 302.777344 129.195312 303.363281 128.484375 C 303.949219 127.769531 304.566406 127.089844 305.222656 126.4375 C 305.875 125.785156 306.554688 125.167969 307.269531 124.585938 C 307.984375 124 308.722656 123.453125 309.492188 122.941406 C 310.257812 122.429688 311.050781 121.957031 311.863281 121.523438 C 312.675781 121.089844 313.511719 120.695312 314.363281 120.34375 C 315.214844 119.988281 316.082031 119.679688 316.964844 119.414062 C 317.847656 119.144531 318.742188 118.921875 319.648438 118.742188 C 320.554688 118.5625 321.464844 118.425781 322.382812 118.335938 C 323.300781 118.246094 324.222656 118.203125 325.144531 118.203125 C 326.070312 118.203125 326.988281 118.246094 327.910156 118.335938 C 328.828125 118.425781 329.738281 118.5625 330.644531 118.742188 C 331.546875 118.921875 332.441406 119.144531 333.324219 119.414062 C 334.210938 119.679688 335.078125 119.988281 335.929688 120.34375 C 336.78125 120.695312 337.617188 121.089844 338.429688 121.523438 C 339.242188 121.957031 340.035156 122.429688 340.800781 122.941406 C 341.570312 123.453125 342.308594 124 343.023438 124.585938 C 343.734375 125.167969 344.417969 125.785156 345.070312 126.4375 C 345.722656 127.089844 346.34375 127.769531 346.929688 128.484375 C 347.515625 129.195312 348.0625 129.933594 348.574219 130.699219 C 349.089844 131.464844 349.5625 132.253906 349.996094 133.066406 C 350.433594 133.878906 350.828125 134.710938 351.179688 135.5625 C 351.53125 136.414062 351.84375 137.277344 352.113281 138.160156 C 352.378906 139.042969 352.601562 139.933594 352.785156 140.835938 C 352.964844 141.742188 353.097656 142.652344 353.1875 143.566406 C 353.28125 144.484375 353.324219 145.402344 353.324219 146.324219 Z M 353.324219 146.324219 " fill-opacity="1" fill-rule="nonzero"/></g><path fill="#725bff" d="M 160.917969 275.074219 L 150.148438 264.328125 L 150.265625 200.015625 L 193.203125 242.851562 Z M 160.917969 275.074219 " fill-opacity="1" fill-rule="nonzero"/><path fill="#ff7480" d="M 290.042969 275.074219 L 300.59375 264.539062 L 300.691406 200.015625 L 257.753906 242.851562 Z M 290.042969 275.074219 " fill-opacity="1" fill-rule="nonzero"/><path fill="#28e8a3" d="M 193.199219 307.304688 L 225.480469 275.085938 L 257.765625 307.304688 L 225.480469 339.523438 Z M 193.199219 307.304688 " fill-opacity="1" fill-rule="nonzero"/><path fill="#fbce13" d="M 225.476562 275.070312 L 257.757812 242.851562 L 290.042969 275.070312 L 257.757812 307.289062 Z M 225.476562 275.070312 " fill-opacity="1" fill-rule="nonzero"/><path fill="#11d9ed" d="M 160.914062 275.082031 L 193.199219 242.863281 L 225.484375 275.082031 L 193.199219 307.300781 Z M 160.914062 275.082031 " fill-opacity="1" fill-rule="nonzero"/><g clip-path="url(#0350b54d8e)"><path fill="#dce4ef" d="M 300.59375 200.015625 L 349.679688 200.015625 L 349.679688 362.699219 L 300.59375 362.699219 Z M 300.59375 200.015625 " fill-opacity="1" fill-rule="nonzero"/></g><g clip-path="url(#a34852f64b)"><path fill="#dce4ef" d="M 101.0625 200.015625 L 150.148438 200.015625 L 150.148438 362.699219 L 101.0625 362.699219 Z M 101.0625 200.015625 " fill-opacity="1" fill-rule="nonzero"/></g></svg>